<svg width="24" height="30" viewBox="0 0 24 30" fill="none" xmlns="http://www.w3.org/2000/svg">
<path d="M11.9998 0C5.87234 0 0.916504 4.695 0.916504 10.5C0.916504 18.375 11.9998 30 11.9998 30C11.9998 30 23.0832 18.375 23.0832 10.5C23.0832 4.695 18.1273 0 11.9998 0ZM4.08317 10.5C4.08317 6.36 7.62984 3 11.9998 3C16.3698 3 19.9165 6.36 19.9165 10.5C19.9165 14.82 15.3565 21.285 11.9998 25.32C8.7065 21.315 4.08317 14.775 4.08317 10.5Z" fill="#007646"/>
<path d="M11.9998 14.25C14.186 14.25 15.9582 12.5711 15.9582 10.5C15.9582 8.42893 14.186 6.75 11.9998 6.75C9.81371 6.75 8.0415 8.42893 8.0415 10.5C8.0415 12.5711 9.81371 14.25 11.9998 14.25Z" fill="#007646"/>
</svg>
