<svg width="22" height="24" viewBox="0 0 22 24" fill="none" xmlns="http://www.w3.org/2000/svg">
<path d="M4.32667 2.66667C4.4 3.85333 4.58333 5.01333 4.87667 6.12L3.41 7.72C2.90889 6.12 2.59111 4.42667 2.48111 2.66667H4.32667ZM16.3778 18.6933C17.4167 19.0133 18.48 19.2133 19.5556 19.2933V21.28C17.9422 21.16 16.39 20.8133 14.9111 20.28L16.3778 18.6933ZM5.5 0H1.22222C0.55 0 0 0.6 0 1.33333C0 13.8533 9.30111 24 20.7778 24C21.45 24 22 23.4 22 22.6667V18.0133C22 17.28 21.45 16.68 20.7778 16.68C19.2622 16.68 17.7833 16.4133 16.4144 15.92C16.2922 15.8667 16.1578 15.8533 16.0356 15.8533C15.7178 15.8533 15.4122 15.9867 15.1678 16.24L12.4789 19.1733C9.02 17.24 6.18444 14.16 4.42444 10.3867L7.11333 7.45333C7.45555 7.08 7.55333 6.56 7.41889 6.09333C6.96667 4.6 6.72222 3 6.72222 1.33333C6.72222 0.6 6.17222 0 5.5 0Z" fill="#007646"/>
</svg>
